# xmcd
#
# Track frame offsets:
#	150
#	13000
#	31640
#	52939
#	72952
#	86650
#	96972
#	116137
#	135715
#	153715
#
# Disc length: 2341 seconds
#
# Revision: 3
# Processed by: cddbd v1.5.2PL0 Copyright (c) Steve Scherf et al.
# Submitted via: audiograbber 1.83.01
#
DISCID=7f09230a
DTITLE=Various Artist - Orginal Divas  [CD3)
DYEAR=2002
DGENRE=Oldies
TTITLE0=Nina Simone - Since I Fell For You
TTITLE1=Carmen McRae - Misty
TTITLE2=Cleo Laine - Willow Weep For Me
TTITLE3=Della Reese - These Foolish Things
TTITLE4=Eartha Kitt - My Heart Belongs To Daddy
TTITLE5=Diahann Carroll - A Fine Romance
TTITLE6=Dionne Warwick - Night And Day
TTITLE7=Angela Bofill - This Time I'll Be Sweeter
TTITLE8=Phyllis Hyman - Deliver The Love
TTITLE9=Jennifer Holiday - It's In There
EXTD=
EXTT0=
EXTT1=
EXTT2=
EXTT3=
EXTT4=
EXTT5=
EXTT6=
EXTT7=
EXTT8=
EXTT9=
PLAYORDER=
